<?xml version="1.0" encoding="UTF-8" standalone="no"?>
<!-- Created with Inkscape (http://www.inkscape.org/) -->

<svg
   xmlns:dc="http://purl.org/dc/elements/1.1/"
   xmlns:cc="http://creativecommons.org/ns#"
   xmlns:rdf="http://www.w3.org/1999/02/22-rdf-syntax-ns#"
   xmlns:svg="http://www.w3.org/2000/svg"
   xmlns="http://www.w3.org/2000/svg"
   xmlns:sodipodi="http://sodipodi.sourceforge.net/DTD/sodipodi-0.dtd"
   xmlns:inkscape="http://www.inkscape.org/namespaces/inkscape"
   width="135.18684mm"
   height="129.07216mm"
   viewBox="0 0 479.0085 457.34229"
   id="svg4218"
   version="1.1"
   inkscape:version="0.91 r13725"
   sodipodi:docname="drawing.svg">
  <defs
     id="defs4220" />
  <sodipodi:namedview
     id="base"
     pagecolor="#ffffff"
     bordercolor="#666666"
     borderopacity="1.0"
     inkscape:pageopacity="0.0"
     inkscape:pageshadow="2"
     inkscape:zoom="0.71"
     inkscape:cx="-182.81531"
     inkscape:cy="27.531187"
     inkscape:document-units="px"
     inkscape:current-layer="layer1"
     showgrid="false"
     inkscape:window-width="1863"
     inkscape:window-height="1056"
     inkscape:window-x="57"
     inkscape:window-y="24"
     inkscape:window-maximized="1"
     fit-margin-top="0.4"
     fit-margin-left="0.3"
     fit-margin-right="0.3"
     fit-margin-bottom="0.4" />
  <metadata
     id="metadata4223">
    <rdf:RDF>
      <cc:Work
         rdf:about="">
        <dc:format>image/svg+xml</dc:format>
        <dc:type
           rdf:resource="http://purl.org/dc/dcmitype/StillImage" />
        <dc:title></dc:title>
      </cc:Work>
    </rdf:RDF>
  </metadata>
  <g
     inkscape:label="Layer 1"
     inkscape:groupmode="layer"
     id="layer1"
     transform="translate(-77.815307,-102.55107)">
    <ellipse
       style="fill:#b7e991;fill-opacity:1;stroke:#acdb9f;stroke-width:1.29999995;stroke-miterlimit:4;stroke-dasharray:none;stroke-opacity:1"
       id="path4766"
       cx="188.73239"
       cy="279.827"
       rx="54.929577"
       ry="57.042255" />
    <ellipse
       style="fill:#b7e991;fill-opacity:1;stroke:#acdb9f;stroke-width:0.58745939;stroke-miterlimit:4;stroke-dasharray:none;stroke-opacity:1"
       id="path4766-9"
       cx="343.66199"
       cy="141.0946"
       rx="27.116833"
       ry="23.595709" />
    <ellipse
       style="fill:#b7e991;fill-opacity:1;stroke:#acdb9f;stroke-width:0.41029879;stroke-miterlimit:4;stroke-dasharray:none;stroke-opacity:1"
       id="path4766-1"
       cx="323.23944"
       cy="465.74252"
       rx="16.642033"
       ry="18.754711" />
    <ellipse
       style="fill:#b7e991;fill-opacity:1;stroke:#acdb9f;stroke-width:0.75792432;stroke-miterlimit:4;stroke-dasharray:none;stroke-opacity:1"
       id="path4766-4"
       cx="205.6338"
       cy="429.12277"
       rx="34.073853"
       ry="31.256956"
       inkscape:transform-center-x="32.394366"
       inkscape:transform-center-y="9.8591549" />
    <circle
       style="fill:#b7e991;fill-opacity:1;stroke:#acdb9f;stroke-width:1.63165998;stroke-miterlimit:4;stroke-dasharray:none;stroke-opacity:1"
       id="path4766-8"
       cx="383.09857"
       cy="306.58755"
       r="70.256706" />
    <ellipse
       style="fill:#b7e991;fill-opacity:1;stroke:#acdb9f;stroke-width:0.73432565;stroke-miterlimit:4;stroke-dasharray:none;stroke-opacity:1"
       id="path4766-9-9"
       cx="459.15494"
       cy="187.57347"
       rx="31.268751"
       ry="31.97298" />
    <path
       style="fill:#f3b55c;fill-opacity:1;stroke:none;stroke-width:1.29999995;stroke-miterlimit:4;stroke-dasharray:none;stroke-opacity:1"
       id="path4816"
       d="m 274.70804,116.24884 c -5.28204,-0.11746 -10.56551,-0.0755 -15.84831,-0.0666 -4.19007,0.0264 -8.38018,0.0297 -12.5703,0.0416 -4.8615,-0.0611 -9.63973,1.05405 -14.43459,1.73104 -4.50252,0.6778 -9.12437,0.59481 -13.46953,2.06521 -7.29811,4.49131 2.4489,-1.53201 14.60818,-8.23302 0.53314,-0.29381 -1.01243,0.68324 -1.4649,1.09046 -1.59056,1.4315 -2.7967,3.26497 -4.01495,5.00306 -2.71699,4.53458 -5.83649,8.57784 -9.72794,12.14497 -3.09399,2.43259 -4.49297,6.0002 -5.89013,9.54904 -1.46423,4.03116 -2.96745,8.01396 -4.71378,11.93128 -1.61504,2.99608 -2.57376,6.21879 -3.49935,9.47223 -0.80009,4.0914 -1.6778,8.21259 -1.83235,12.3897 -0.0843,3.0843 0.78666,6.07745 1.26739,9.10261 0.37695,2.65125 0.4352,5.33501 0.50418,8.0081 0,0 -18.55428,9.50316 -18.55428,9.50316 l 0,0 c -0.0421,-2.5895 -0.0873,-5.1852 -0.40677,-7.75869 -0.44297,-3.15688 -1.36588,-6.25933 -1.37308,-9.4578 0.0685,-4.3459 1.08239,-8.52939 1.58747,-12.83777 0.90447,-3.33196 1.64964,-6.7305 3.3978,-9.75198 0.78488,-1.81686 1.81454,-3.56976 2.53819,-5.40525 0.83172,-2.1096 1.25147,-4.39595 2.25668,-6.44725 1.35328,-3.70273 2.54484,-7.74705 5.52194,-10.47731 1.78468,-1.53973 3.6863,-3.05134 5.25676,-4.81817 1.69054,-1.90191 1.74177,-2.34176 3.14579,-4.5507 0.48662,-0.76559 0.99813,-1.51507 1.4972,-2.27261 1.16854,-1.83883 2.40049,-3.80964 3.7647,-5.50549 5.49728,-6.83369 14.48276,-10.32499 22.64341,-13.35324 4.45049,-0.91094 8.98646,-1.1084 13.47596,-1.76609 4.88761,-0.75378 9.77831,-1.73232 14.74978,-1.58594 4.15191,0.0119 8.30382,0.0151 12.45569,0.0416 5.34389,0.009 10.68837,0.0491 16.03155,-0.0666 0,0 -16.90241,12.28032 -16.90241,12.28032 z"
       inkscape:connector-curvature="0" />
    <path
       style="fill:#f3b55c;fill-opacity:1;stroke:none;stroke-width:1.29999995;stroke-miterlimit:4;stroke-dasharray:none;stroke-opacity:1"
       id="path4818"
       d="m 380.06491,477.19935 c 4.57035,0.0148 9.15555,0.27784 13.70958,-0.16574 5.06703,-0.50754 10.02388,-1.9734 14.79318,-3.72146 2.58616,-0.91577 2.0968,-0.64636 4.42246,-1.8186 0.64858,-0.32691 2.55497,-1.38224 1.92534,-1.02018 -28.43296,16.35031 -18.9063,11.06555 -12.78549,6.9599 6.45964,-3.73264 12.91928,-7.46528 19.37892,-11.19791 0.41265,-0.24284 1.65333,-0.96662 1.23795,-0.7285 -5.53889,3.1751 -11.03893,6.41856 -16.60852,9.53948 -0.41197,0.23085 0.76771,-0.55248 1.12382,-0.86263 1.05822,-0.92163 1.30952,-1.342 2.22875,-2.4749 2.61944,-4.39116 3.3531,-9.61149 4.56532,-14.51811 1.25568,-3.92895 1.62697,-8.08305 2.82086,-12.024 0.70663,-2.33255 1.48915,-3.99513 2.4455,-6.24033 2.61739,-5.30944 5.30236,-10.56251 6.90723,-16.27884 0.78898,-3.99147 1.47968,-8.01623 1.99402,-12.0546 0.38947,-3.58071 0.47002,-7.18381 0.51015,-10.78222 -0.14868,-1.59746 -0.0732,-0.81589 -0.22563,-2.34476 0,0 18.6034,-9.61106 18.6034,-9.61106 l 0,0 c 0.014,1.52959 -0.0375,0.69078 0.2133,2.51212 -0.0498,3.67343 -0.1539,7.34843 -0.49606,11.00818 -0.41083,4.15382 -1.23101,8.247 -1.91107,12.35987 -1.50781,5.86555 -4.07571,11.29294 -6.93048,16.62317 -0.47373,1.07484 -2.1274,4.75869 -2.53372,5.93838 -1.33795,3.88452 -1.53005,8.06009 -2.79477,11.96955 -1.2221,5.07375 -2.09669,10.30561 -4.10057,15.13298 -4.79637,8.2254 -12.93278,9.88101 -22.04641,15.24303 -4.98651,2.93382 -24.43083,11.22837 14.98576,-8.75671 -9.43422,5.8896 -18.57929,12.65648 -29.22944,16.1215 -4.92051,1.61314 -9.97013,3.01498 -15.16358,3.31872 -4.65197,0.20927 -9.31082,0.0373 -13.9659,0.17121 0,0 16.9261,-12.29754 16.9261,-12.29754 z"
       inkscape:connector-curvature="0" />
    <path
       style="fill:#f3b55c;fill-opacity:1;stroke:none;stroke-width:1.29999995;stroke-miterlimit:4;stroke-dasharray:none;stroke-opacity:1"
       id="path4820"
       d="m 310.22973,167.51162 c -3.28757,3.13517 -5.69177,6.89287 -7.3653,11.08812 -1.43625,4.79469 -2.4741,9.72162 -4.3099,14.3858 -1.68176,3.80722 -3.32226,7.63945 -4.53477,11.62388 -1.11828,4.03683 -1.44203,8.2118 -1.60397,12.378 -0.19692,4.22686 -0.20874,8.44534 0.62246,12.60614 0.29859,3.39782 2.37117,5.71959 4.18556,8.38343 1.32122,2.13203 2.42789,4.35284 3.40595,6.66184 0.98231,2.49198 2.50165,4.1544 4.98736,5.10114 1.69234,0.41641 0.83185,0.24362 2.58221,0.5147 0,0 -17.14291,11.92254 -17.14291,11.92254 l 0,0 c -1.92886,-0.50006 -0.97757,-0.19879 -2.8533,-0.90562 -2.71606,-1.45329 -4.60654,-3.54207 -5.80588,-6.40507 -0.9202,-2.18356 -1.98213,-4.27829 -3.19009,-6.31577 -1.93872,-2.88649 -4.10322,-5.53514 -4.48087,-9.15923 -0.88693,-4.2938 -1.05959,-8.65429 -0.88397,-13.03062 0.1658,-4.31545 0.43429,-8.64668 1.47735,-12.85517 1.04478,-4.10365 2.62389,-8.025 4.35183,-11.88727 2.2918,-4.44356 3.13756,-9.48874 4.46409,-14.27711 1.43657,-4.43547 3.61104,-8.36036 6.76684,-11.82409 0,0 19.32731,-8.00564 19.32731,-8.00564 z"
       inkscape:connector-curvature="0" />
    <path
       style="fill:#f3b55c;fill-opacity:1;stroke:none;stroke-width:1.29999995;stroke-miterlimit:4;stroke-dasharray:none;stroke-opacity:1"
       id="path4822"
       d="m 395.55787,109.59372 c 4.63598,0.10005 9.27322,0.0556 13.90982,0.07 3.23565,0.0786 6.48527,-0.22656 9.70456,0.22345 9.24308,1.29205 -3.67576,-0.22589 4.91161,0.7449 3.76029,0.0818 7.29238,1.05038 10.6951,2.57514 2.96595,1.50166 5.91076,2.8181 8.65184,4.71503 2.57036,2.33541 5.61016,3.8047 8.75191,5.19338 2.39185,0.59164 4.27401,2.23988 6.51634,3.15147 0,0 -17.49491,11.54115 -17.49491,11.54115 l 0,0 c -2.0738,-1.15763 -4.07245,-2.45287 -6.36395,-3.17141 -3.22788,-1.45064 -6.206,-3.24815 -8.96013,-5.4811 -2.67853,-1.72961 -5.58274,-2.98009 -8.44962,-4.36558 -3.30363,-1.28116 -6.70174,-2.01664 -10.25693,-2.19657 -4.80109,-0.68067 -9.58463,-0.95763 -14.43913,-0.7724 -4.70087,0.0145 -9.40233,-0.0288 -14.10261,0.07 0,0 16.9261,-12.29753 16.9261,-12.29753 z"
       inkscape:connector-curvature="0" />
    <path
       style="fill:#f3b55c;fill-opacity:1;stroke:none;stroke-width:1.29999995;stroke-miterlimit:4;stroke-dasharray:none;stroke-opacity:1"
       id="path4824"
       d="m 124.60158,306.80182 c -1.53395,4.17792 -3.34682,8.23996 -4.80908,12.44732 -3.10495,7.33823 -7.12627,14.25987 -10.48546,21.49344 -6.05806,12.34576 -9.11379,25.7327 -11.231527,39.23097 -0.64338,6.90434 -1.945337,15.11405 -0.517147,22.01255 0.207899,1.0042 0.576388,1.96834 0.864582,2.95251 2.010452,5.96473 5.636952,11.0191 9.417102,15.95622 1.47613,2.48046 3.35361,4.58754 5.44017,6.5423 3.65397,0.87513 7.43772,0.45537 11.13716,0.88902 2.26423,-0.0479 4.51839,-0.26272 6.78358,-0.33543 1.66023,-0.0372 0.82129,-0.0213 2.51681,-0.0472 0,0 -16.88292,12.32611 -16.88292,12.32611 l 0,0 c -1.69079,0.0527 -0.85432,0.0221 -2.50942,0.0913 -2.28889,0.1203 -4.58163,0.33972 -6.8682,0.0392 -4.02881,-0.30015 -8.369342,0.15424 -11.971108,-1.99305 -2.149178,-2.06105 -4.067834,-4.32047 -5.494746,-6.95457 -3.656156,-5.29349 -7.429129,-10.52261 -9.611772,-16.64961 -0.330802,-1.08521 -0.752436,-2.1468 -0.992406,-3.25564 -0.59755,-2.76113 -0.516747,-4.54419 -0.489452,-7.3792 0.04966,-5.15743 0.353777,-10.3094 1.226863,-15.40158 2.179805,-13.54506 5.048644,-27.07571 10.810922,-39.61261 3.06177,-7.18465 6.856203,-13.99972 10.108119,-21.08752 1.29483,-4.20009 3.07337,-8.20508 4.66679,-12.2921 0,0 18.89114,-8.97238 18.89114,-8.97238 z"
       inkscape:connector-curvature="0" />
    <path
       style="fill:#f3b55c;fill-opacity:1;stroke:none;stroke-width:1.29999995;stroke-miterlimit:4;stroke-dasharray:none;stroke-opacity:1"
       id="path4826"
       d="m 241.88295,403.40997 c 8.82446,-8.0421 19.94305,-13.27597 31.19732,-16.99569 4.80706,-1.46568 9.8208,-1.79168 14.80108,-2.12865 3.71839,0.11966 3.98455,3.44962 5.09665,6.24545 1.24717,2.64231 3.77691,4.11299 5.76086,6.1056 6.86606,6.89602 -2.88469,-2.47463 3.09084,3.22182 3.16827,2.3866 4.8108,5.62065 6.06934,9.28177 1.097,3.18925 2.83114,5.7568 5.3401,7.96059 1.38435,1.30764 2.77977,2.50822 3.93668,4.02864 0,0 -17.96878,10.69679 -17.96878,10.69679 l 0,0 c -1.09191,-1.39086 -2.43642,-2.50324 -3.69537,-3.73961 -2.69666,-2.50501 -4.55429,-5.44667 -5.83346,-8.91168 -1.09283,-3.39718 -2.70262,-6.20545 -5.55073,-8.45563 -1.01163,-1.0371 -1.95395,-2.1418 -2.9907,-3.15378 -2.22994,-2.17663 -4.88118,-3.9649 -6.31363,-6.8448 -0.25987,-0.5781 -0.55433,-1.14186 -0.77961,-1.73429 -0.82303,-2.16438 -0.22068,-2.45055 -2.92176,-2.36533 -4.85292,0.27086 -9.70155,0.88033 -14.3219,2.46484 -2.1329,0.76048 -3.33179,1.14989 -5.42726,2.05483 -0.85611,0.36971 -3.33173,1.66782 -2.53523,1.18285 27.911,-16.99424 17.86895,-11.071 12.37286,-6.91935 0,0 -19.3273,8.00563 -19.3273,8.00563 z"
       inkscape:connector-curvature="0" />
    <path
       style="fill:#f3b55c;fill-opacity:1;stroke:none;stroke-width:1.29999995;stroke-miterlimit:4;stroke-dasharray:none;stroke-opacity:1"
       id="path4828"
       d="m 237.39801,387.9203 c 1.51969,-5.29171 2.0223,-10.78619 2.38731,-16.25651 0.35642,-5.00764 0.0993,-10.03671 0.41374,-15.04249 0.49375,-4.10943 0.86783,-8.22535 1.06576,-12.35959 0.43994,-3.73309 1.0143,-7.44022 1.30002,-11.19135 0.0529,-4.42679 2.10703,-8.11846 3.99036,-11.97949 1.36513,-3.50605 3.60912,-6.48526 5.59315,-9.64258 1.61,-3.20009 3.21463,-5.37363 6.22677,-7.31972 9.43311,-6.08824 16.59806,-11.86076 27.09298,-12.74385 2.87826,-0.17004 5.76343,-0.13435 8.6452,-0.12142 2.78948,0.13925 5.63046,-0.26779 8.37452,0.30445 2.07326,0.46084 3.96198,2.10156 5.23726,3.79294 0,0 -18.08975,10.72697 -18.08975,10.72697 l 0,0 c -1.01289,-1.39652 -2.50363,-2.31909 -4.23078,-2.46327 -2.72505,-0.15421 -5.45906,-0.0389 -8.18725,-0.0909 -2.83144,7.3e-4 -5.67273,-0.0165 -8.48948,0.31348 -8.31443,1.25517 -21.36829,10.03311 9.0748,-7.24486 -3.05364,1.80953 -5.26896,2.89113 -6.58884,6.48978 -1.37299,1.99668 -0.71832,0.94479 -1.94993,3.16437 -0.65432,1.00661 -1.6164,1.79694 -2.22744,2.83039 -0.64493,1.09074 -0.74911,2.4511 -1.56246,3.46547 -1.36437,2.54622 -0.71855,1.218 -1.92242,3.99192 -0.31781,0.61131 -0.77685,1.14203 -1.09431,1.75352 -0.89515,1.72422 -0.99463,3.57995 -1.28832,5.46386 -0.26186,3.73838 -0.64288,7.46368 -1.32992,11.15127 -0.21081,4.1567 -0.49184,8.31439 -1.07213,12.43826 -0.51209,5.00611 -0.17035,10.0668 -0.59446,15.08451 -0.30412,5.52236 -0.72337,11.05094 -1.93875,16.46178 0,0 -18.83563,9.02306 -18.83563,9.02306 z"
       inkscape:connector-curvature="0" />
    <path
       style="fill:#f3b55c;fill-opacity:1;stroke:none;stroke-width:1.29999995;stroke-miterlimit:4;stroke-dasharray:none;stroke-opacity:1"
       id="path4830"
       d="m 529.65531,195.23058 c 4.3469,2.80509 7.40934,5.84344 10.82517,9.65405 3.42254,3.96713 4.21175,9.12345 5.62534,13.98348 2.1186,6.02188 4.85006,11.79983 7.06533,17.7893 1.56104,4.18535 2.21433,8.60213 2.53302,13.03377 0.12782,5.1846 2.8e-4,10.37365 -0.007,15.55987 0.13553,5.0768 -0.0171,10.11957 -0.56,15.16656 -0.84613,4.91355 -1.47719,9.87497 -2.80108,14.6875 -1.55512,5.07905 -4.81414,8.95135 -8.68091,12.45101 -7.23044,6.1816 -15.4866,9.9885 -23.98934,14.80476 -1.74062,0.98595 -3.81847,1.39423 -5.65518,2.17845 -2.6262,0.81742 -5.20814,1.74492 -7.9015,2.32164 -3.84481,0.58973 -7.76392,0.54732 -11.64608,0.60263 -4.77364,0.30693 -9.54796,0.25657 -14.33438,0.17338 -3.64456,-0.075 -7.28978,-0.0962 -10.93486,-0.12711 -1.56971,-0.0134 -3.13915,-0.0125 -4.70873,0.008 0,0 16.91257,-12.28161 16.91257,-12.28161 l 0,0 c 1.55295,0.0285 3.10586,0.0349 4.65907,0.0411 3.62139,0.0228 7.24143,0.12077 10.86176,0.20679 4.7737,0.087 9.53162,-0.0311 14.29986,-0.2408 3.84002,-0.086 7.73676,-0.11898 11.48232,-1.06576 2.59073,-0.73718 5.16068,-1.56363 7.6825,-2.51054 0.99306,-0.3685 2.48497,-0.90318 3.42633,-1.33659 0.66169,-0.30466 2.57256,-1.36594 1.94641,-0.99366 -28.79773,17.1214 -16.85383,10.59322 -11.26432,5.94822 4.00799,-3.02921 7.2642,-6.63524 9.15021,-11.3404 1.56316,-4.64737 1.94376,-9.52149 2.90897,-14.31095 0.55914,-5.00416 1.0024,-9.98349 0.7799,-15.03166 0.0249,-5.11687 0.0247,-10.23522 -0.12641,-15.35035 -0.18171,-4.27523 -0.65664,-8.54332 -2.06178,-12.61352 -2.09764,-6.07223 -4.92337,-11.83203 -7.12186,-17.8638 -1.46579,-4.51789 -2.0472,-9.44364 -5.26701,-13.16002 -3.1382,-3.50675 -6.3944,-6.76218 -10.61333,-8.99794 0,0 17.51535,-11.3857 17.51535,-11.3857 z"
       inkscape:connector-curvature="0" />
    <path
       style="fill:#f3b55c;fill-opacity:1;stroke:none;stroke-width:1.29999995;stroke-miterlimit:4;stroke-dasharray:none;stroke-opacity:1"
       id="path4832"
       d="m 193.81473,468.68581 c -0.29453,5.02763 0.2441,10.03854 0.83569,15.02342 1.62145,8.10917 4.96028,15.74199 7.84539,23.45836 3.76703,7.46961 6.03648,15.85653 11.06737,22.66379 0.82705,1.11907 1.85744,2.07247 2.78616,3.10871 5.59795,5.13306 12.91799,7.76612 20.0286,10.0942 10.2818,2.42894 20.8904,2.92641 31.4126,3.24571 5.89654,0.15156 11.77859,0.31131 17.63233,-0.46177 1.38351,-0.18834 2.41852,-0.24564 3.73021,-0.73703 0.49779,-0.18649 1.88421,-0.9845 1.42162,-0.72261 -27.51168,15.57542 -19.15164,12.92824 -14.27088,6.72803 2.38629,-3.42383 3.29081,-7.45686 4.24377,-11.43721 0.81794,-2.57381 1.30733,-5.20597 1.54507,-7.89057 0.0296,-1.63704 0.26741,-3.25082 0.65112,-4.8384 0,0 18.9181,-9.02568 18.9181,-9.02568 l 0,0 c -0.43461,1.4828 -1.00926,2.93127 -0.88334,4.51434 -0.16427,2.80998 -0.47745,5.6116 -1.41822,8.28475 -1.27458,4.04515 -1.77504,8.36091 -3.98926,12.08891 -5.47098,8.98034 -16.27001,14.3881 -26.59737,15.41742 -5.82735,0.53481 -11.67279,0.15768 -17.5119,-0.0166 -10.64149,-0.56954 -21.36684,-1.19754 -31.76146,-3.69724 -7.4375,-2.51678 -14.9753,-5.30712 -20.59617,-11.02455 -0.96768,-1.1488 -2.03796,-2.21847 -2.90303,-3.4464 -4.94137,-7.014 -7.3579,-15.43449 -11.26741,-22.98656 -2.90222,-7.85913 -6.40744,-15.53689 -8.33632,-23.7136 -0.73544,-5.01302 -1.17858,-10.07611 -1.19805,-15.14443 0,0 18.61538,-9.48501 18.61538,-9.48501 z"
       inkscape:connector-curvature="0" />
  </g>
</svg>
